# xmcd
#
# Track frame offsets:
#	150
#	24051
#	48248
#	72562
#	97129
#	127031
#	148421
#	169142
#	184970
#	201243
#	224096
#
# Disc length: 3164 seconds
#
# Revision: 0
# Processed by: cddbd v1.4PL0 Copyright (c) Steve Scherf et al.
# Submitted via: dBpowerAMP V4.0
#
DISCID=b40c5a0b
DTITLE=Crosscut - Half aLive
DYEAR=2003
DGENRE=Blues
TTITLE0=Been There Done That Blues
TTITLE1=Dont Harp On Me
TTITLE2=Einstein Boogie
TTITLE3=Got To Call My Baby
TTITLE4=Sorry Try Again
TTITLE5=Too Old To Sin
TTITLE6=RoundNRound
TTITLE7=Back To New Orleans
TTITLE8=Aint Gonna Break My Heart
TTITLE9=Home Schooled In The Blues
TTITLE10=Money Shot
EXTD=
EXTT0=
EXTT1=
EXTT2=
EXTT3=
EXTT4=
EXTT5=
EXTT6=
EXTT7=
EXTT8=
EXTT9=
EXTT10=
PLAYORDER=
